<svg width="674" height="200" viewBox="0 0 674 200" fill="none" xmlns="http://www.w3.org/2000/svg">
<path d="M317.68 199.992C336.472 199.992 343.667 190.728 354.736 174C358.345 168.6 361.435 168.848 361.17 176.312C361.17 179.656 359.89 193.56 354.231 193.56C351.662 193.56 350.622 194.08 350.622 195.624C350.622 197.432 351.646 197.936 354.472 197.936C360.13 197.936 368.63 196.392 377.369 196.392H389.198C402.068 196.392 410.039 197.68 422.909 197.68C427.023 197.68 428.303 196.912 428.303 195.368C428.303 195.112 428.303 194.848 428.047 194.848C427.527 193.824 426.246 193.56 423.157 193.56C402.828 193.56 388.422 189.952 386.877 170.92C386.621 169.632 386.621 168.352 386.621 166.808V107.872C386.621 92.1682 395.625 78.2722 403.869 78.2722C414.417 78.2722 411.072 90.3683 423.421 90.3683C430.36 90.3683 437.059 84.7123 437.059 73.3843C437.059 63.8563 431.144 58.7202 421.356 58.7202C409.527 58.7202 399.483 67.2079 391.503 82.3999C388.414 88.3199 386.613 88.0561 387.134 81.3761C387.654 73.6561 388.414 67.4803 388.414 63.3683C388.414 61.3043 387.654 58.7362 384.3 58.7362C376.321 58.7362 366.293 65.68 350.854 68.264C348.285 68.784 347.244 69.2881 347.244 70.5761C347.244 72.3841 348.005 72.8882 350.334 72.8882C361.659 72.8882 361.403 88.5921 361.403 100.424V136.456C361.403 156.272 354.704 184.064 329.757 184.064C313.798 184.064 308.916 169.648 308.916 145.2V64.144C308.916 57.968 312.005 52.8159 315.855 52.8159H341.082C344.171 52.8159 345.716 51.528 345.716 49.464C345.716 47.152 344.171 45.0882 341.346 45.0882C336.976 45.0882 325.643 47.6561 317.664 47.6561C312.27 47.6561 308.396 45.0882 308.396 39.6722V13.4241C308.396 10.0721 308.14 9.31198 305.827 9.31198C304.026 9.31198 303.522 10.3361 303.002 13.4241C300.697 39.6721 284.21 46.8722 263.377 46.8722C260.551 46.8722 259.527 49.184 259.527 50.728C259.527 52.272 260.551 52.7921 263.377 52.7921H276.494C280.344 52.7921 283.433 58.7121 283.433 62.5761V152.136C283.433 188.672 301.961 200 317.664 200H317.68V199.992Z" fill="#F1F7F6"/>
<path d="M434.378 130.856C434.378 88.2324 454.906 53.4084 487.392 53.4084C511.563 53.4084 527.938 72.6405 527.938 93.9525C527.938 108.505 524.816 113.185 506.104 113.185H469.985C463.486 113.185 459.068 117.6 458.812 123.576V129.032C458.812 159.184 471.289 180.496 492.859 180.496C504.56 180.496 520.15 173.48 529.506 141.248C530.547 138.648 531.067 138.128 532.107 138.128C533.668 138.128 533.668 139.169 533.148 141.769C523.792 182.313 506.641 199.985 482.214 199.985C452.85 199.985 434.394 175.296 434.394 130.848L434.378 130.856ZM469.977 109.808H487.648C499.606 109.808 502.727 104.088 502.727 93.1764C502.727 74.9843 497.269 58.8724 484.015 58.8724C471.538 58.8724 462.446 74.7283 459.845 98.8963C459.588 105.136 463.742 109.808 469.977 109.808Z" fill="#F1F7F6"/>
<path d="M520.126 197.136C517.269 197.136 516.229 196.616 516.229 194.8C516.229 193.24 517.269 192.72 519.862 192.72C537.014 192.72 545.593 188.56 545.593 166.208L545.857 32.7442C545.857 16.8882 541.96 15.5922 537.542 15.5922C530.787 15.5922 523.248 16.8884 520.655 17.1524C518.31 17.4084 517.533 16.8963 517.533 15.3363C517.533 14.0403 518.574 13.2563 521.167 12.7363C536.501 10.1363 560.416 0 568.211 0C571.068 0 572.997 1.81608 572.893 4.68008C572.069 25.5521 570.812 26.3924 570.812 47.1844V105.4C570.812 117.872 576.27 117.616 581.208 112.68L610.837 80.9762C621.49 69.8002 620.713 61.2243 590.308 61.2243C588.227 61.2243 587.451 60.7042 587.451 59.1442C587.451 57.3282 588.227 56.8082 590.572 56.8082C598.624 56.8082 614.223 57.8483 634.751 58.1043C642.547 58.1043 652.167 57.0641 661.267 57.0641C663.604 57.0641 664.38 57.5842 664.38 59.1442C664.38 60.7042 663.604 61.4801 661.523 61.4801C646.973 61.2241 634.495 63.5604 619.681 79.9364L602.009 99.1684C598.376 103.064 598.112 106.448 600.713 110.6L634.759 170.12C645.94 189.352 658.409 192.728 671.143 192.728C673.224 192.728 674 193.248 674 194.808C674 196.368 673.224 197.144 670.879 197.144C663.34 197.144 652.423 195.848 644.636 195.848H626.444C615.007 195.848 606.427 196.624 596.559 196.624H595.262C584.866 196.624 576.55 195.848 565.89 195.848H551.596C542.24 195.848 530.803 197.144 520.15 197.144L520.126 197.136ZM595.23 192.976H596.527C616.279 192.976 614.983 185.176 604.843 167.248L579.896 122.808C575.998 116.048 570.796 119.432 570.796 129.048V163.096C570.796 183.112 575.214 192.984 595.23 192.984V192.976Z" fill="#F1F7F6"/>
<path d="M216.925 194.12C190.658 194.12 178.692 143.456 178.692 105.696C178.692 82.472 184.791 59.728 199.557 59.728C224.888 59.728 237.55 110.392 237.55 148.152C237.55 171.376 231.923 194.12 216.909 194.12H216.925ZM208.257 199.992C243.208 199.992 264.313 167.856 264.313 125.872C264.313 86.7042 241.791 53.3921 208.257 53.3921C172.834 53.3921 152.441 85.528 152.441 127.512V131.728C152.441 165.744 114.681 192.008 89.8224 192.008H74.1037C62.1466 192.008 59.5615 187.56 59.5615 175.36V37.2159C59.5615 14.9439 69.4057 10.9522 86.3009 10.9522C88.886 10.9522 89.8144 10.2479 89.8144 8.61589C89.8144 6.98389 88.886 6.50417 86.3009 6.50417C75.0481 6.50417 58.8572 7.67995 50.4216 7.67995H39.8731C31.1893 7.67995 14.7743 6.50417 3.7456 6.50417C0.936395 6.50417 0.232099 6.97589 0 8.61589C0 10.2479 0.936412 10.9522 3.51351 10.9522C20.6328 10.9522 30.477 14.9439 30.0208 37.2159V165.992C30.0208 188.512 20.6328 192.728 3.51351 192.728C0.928409 192.728 0 193.432 0 194.84C0 196.48 0.936395 196.952 3.7456 196.952C14.7663 196.952 30.9572 195.776 39.8731 195.776H105.549C119.155 195.776 126.662 196.952 133.465 196.952C138.387 196.952 139.332 194.616 139.332 190.152C139.332 179.6 143.077 165.52 150.352 164.816C155.747 164.344 157.627 164.816 166.295 177.472C172.626 186.856 187.408 199.992 208.273 199.992H208.241H208.257Z" fill="#F1F7F6"/>
</svg>
